<?xml version="1.0" standalone="no"?>
<!DOCTYPE svg PUBLIC "-//W3C//DTD SVG 20010904//EN"
 "http://www.w3.org/TR/2001/REC-SVG-20010904/DTD/svg10.dtd">
<svg version="1.0" xmlns="http://www.w3.org/2000/svg"
 width="732.000000pt" height="462.000000pt" viewBox="0 0 732.000000 462.000000"
 preserveAspectRatio="xMidYMid meet">
<metadata>
Created by potrace 1.16, written by Peter Selinger 2001-2019
</metadata>
<g transform="translate(0.000000,462.000000) scale(0.100000,-0.100000)"
fill="#000000" stroke="none">
<path d="M4310 4470 c-177 -47 -270 -83 -444 -173 -112 -58 -205 -118 -523
-342 -114 -81 -220 -149 -463 -298 -52 -32 -77 -42 -81 -34 -4 7 -10 43 -14
80 -25 243 -115 454 -227 530 -73 49 -152 26 -196 -58 -20 -40 -42 -122 -42
-163 0 -18 -5 -41 -12 -52 -10 -15 -9 -29 4 -67 9 -26 26 -92 39 -145 20 -87
21 -99 8 -115 -9 -10 -20 -35 -27 -57 -13 -44 -6 -67 38 -131 17 -24 30 -48
30 -54 0 -16 -20 -24 -33 -12 -15 12 -177 -13 -218 -35 -21 -10 -35 -11 -57
-3 -23 8 -47 5 -106 -10 -109 -29 -160 -70 -212 -172 -13 -27 -34 -54 -46 -60
-49 -26 -93 -68 -168 -158 -63 -76 -83 -107 -101 -164 -21 -67 -22 -77 -11
-184 10 -105 9 -118 -9 -176 -11 -34 -24 -98 -29 -142 -5 -44 -14 -100 -20
-125 -6 -25 -24 -100 -40 -167 -31 -133 -32 -135 -72 -182 -32 -37 -289 -165
-353 -176 -22 -4 -72 -23 -112 -41 -40 -19 -87 -37 -105 -41 -40 -8 -100 -44
-153 -92 -36 -33 -232 -141 -255 -141 -6 0 -10 21 -10 48 0 61 64 221 143 359
87 153 75 202 -50 203 -61 0 -145 20 -200 48 -50 26 -104 36 -148 28 l-35 -7
1 -72 1 -72 80 -60 c45 -33 86 -67 91 -77 22 -34 -10 -95 -93 -181 l-80 -82 0
-309 0 -309 57 6 c32 4 85 15 118 26 33 11 89 22 125 26 90 9 158 25 194 46
54 31 274 79 364 79 53 0 85 -4 92 -12 6 -7 33 -51 61 -98 56 -96 164 -233
293 -376 77 -85 114 -139 103 -150 -5 -6 -290 -33 -297 -29 -11 7 -405 8 -426
1 -12 -3 -27 -19 -33 -35 -10 -24 -9 -36 13 -82 14 -30 41 -76 61 -103 19 -26
35 -59 35 -71 0 -48 9 -55 70 -55 l59 0 11 54 c22 105 96 118 355 62 92 -20
278 -46 330 -46 24 0 62 -7 86 -16 24 -8 72 -16 107 -16 77 1 117 23 162 90
29 43 31 53 28 112 -3 48 -12 84 -37 135 -32 66 -33 76 -35 195 -3 151 -13
176 -148 378 -105 157 -120 204 -94 293 21 76 67 141 162 234 102 101 142 150
202 256 105 182 159 361 177 580 9 102 32 158 109 254 65 80 96 140 131 247
13 42 47 123 74 181 36 75 55 128 66 192 8 49 16 90 18 91 2 2 21 -1 42 -7 51
-14 93 7 124 62 12 21 26 39 31 39 5 0 19 -19 31 -41 42 -83 196 -330 341
-546 81 -122 151 -229 154 -237 3 -8 -4 -29 -16 -46 -32 -45 -41 -95 -28 -152
13 -53 63 -120 109 -143 43 -23 117 -19 176 10 55 26 65 40 52 67 -7 13 1 25
37 52 54 41 61 41 274 4 198 -34 307 -43 426 -32 103 10 148 21 423 106 l65
19 28 -30 c34 -36 50 -38 88 -11 l28 20 11 -32 c18 -50 13 -138 -10 -188 -11
-25 -29 -90 -40 -145 -19 -97 -39 -145 -60 -145 -15 0 -55 -94 -80 -190 -33
-124 -31 -302 5 -421 24 -83 25 -92 15 -204 -13 -150 1 -206 62 -259 68 -58
182 -70 279 -30 36 15 435 136 530 160 133 35 300 54 300 35 0 -4 -20 -39 -45
-76 -68 -101 -67 -96 -50 -164 12 -45 13 -64 5 -78 -8 -12 -9 -34 -3 -68 11
-65 32 -69 79 -16 44 49 61 44 34 -9 -11 -22 -20 -48 -20 -59 0 -26 43 -55 68
-47 52 17 132 157 162 286 23 96 52 143 180 295 51 60 96 120 101 133 21 56 6
109 -45 156 -31 27 -113 17 -208 -28 l-76 -36 -239 -10 c-275 -11 -517 -13
-527 -3 -8 8 63 83 80 83 16 0 57 42 74 77 8 15 34 50 58 77 24 28 74 112 116
195 63 126 76 146 97 146 21 0 27 -11 59 -113 19 -62 42 -117 50 -122 20 -13
77 -13 101 0 19 11 26 40 12 54 -8 8 -43 97 -43 109 0 12 89 -3 145 -25 63
-25 135 -44 200 -53 28 -4 88 -18 135 -30 47 -13 110 -27 140 -30 30 -4 100
-17 155 -30 341 -81 410 -79 503 8 l32 31 0 187 c0 173 -2 194 -29 296 -36
137 -105 312 -183 462 -33 63 -92 198 -133 301 -59 151 -75 203 -86 281 l-12
97 37 158 c21 88 49 195 61 239 31 105 50 208 42 229 -9 22 -60 21 -80 -1 -8
-10 -25 -39 -35 -64 -11 -26 -36 -69 -54 -95 -19 -27 -50 -76 -70 -109 -47
-77 -111 -137 -168 -159 -52 -20 -135 -69 -167 -99 -49 -44 -18 -113 84 -185
130 -93 111 -49 222 -497 55 -220 108 -431 117 -470 9 -38 20 -77 25 -85 31
-59 51 -111 46 -116 -8 -8 -65 28 -152 95 -33 25 -89 62 -126 81 -137 73 -296
174 -345 220 -99 94 -260 178 -414 219 -47 12 -103 27 -125 33 -25 6 -54 25
-76 49 -33 36 -40 54 -83 228 -25 104 -46 199 -46 210 0 11 16 35 36 53 20 18
52 56 72 83 19 28 55 70 78 95 60 63 84 124 84 216 0 89 -16 126 -86 199 -67
69 -136 95 -253 95 -138 0 -178 -8 -217 -45 -24 -23 -34 -41 -34 -63 0 -18
-10 -42 -23 -58 l-23 -26 -84 57 c-168 114 -369 276 -511 411 -47 45 -101 88
-120 97 -54 24 -100 37 -131 37 -25 0 -29 4 -26 22 2 14 18 31 40 43 48 27
128 102 128 121 0 21 -68 16 -190 -16z m106 -435 c65 -32 85 -55 119 -140 26
-64 126 -263 195 -390 81 -149 122 -237 116 -251 -21 -56 -37 -232 -34 -378
l3 -158 -83 -24 c-95 -28 -195 -75 -233 -111 -15 -13 -44 -29 -65 -35 -22 -5
-209 -12 -418 -15 -343 -5 -384 -4 -437 12 -37 12 -64 27 -74 42 -12 18 -25
23 -54 23 -44 0 -43 -2 -173 180 -88 123 -317 488 -420 668 -10 18 -25 44 -34
57 -9 13 -13 28 -10 33 3 5 158 111 344 236 297 198 343 226 378 226 21 0 61
7 88 15 27 8 55 15 62 15 6 0 29 -29 50 -65 29 -50 46 -67 72 -76 43 -14 114
2 159 37 l33 25 29 -22 c35 -26 54 -18 46 20 -7 34 14 61 70 91 35 19 50 21
130 16 67 -5 103 -12 141 -31z m-1066 -1621 c8 -30 105 -114 143 -125 38 -10
63 -49 44 -68 -17 -17 -87 -13 -132 8 -81 36 -136 145 -109 216 6 14 9 14 28
2 11 -8 23 -23 26 -33z"/>
</g>
</svg>
